# xmcd
#
# Track frame offsets:
#	150
#	10958
#	29711
#	42725
#
# Disc length: 780 seconds
#
# Revision: 0
# Processed by: cddbd v1.5.2PL0 Copyright (c) Steve Scherf et al.
# Submitted via: FairStars CD Ripper 1.80
#
DISCID=33030a04
DTITLE=Katy Hurt - Blue Snake (EP)
DYEAR=2014
DGENRE=Country
TTITLE0=Just A Little
TTITLE1=Devil's Intuition
TTITLE2=Valentine
TTITLE3=Blue Snake
EXTD=
EXTT0=
EXTT1=
EXTT2=
EXTT3=
PLAYORDER=
